<svg width="429" height="439" viewBox="0 0 429 439" fill="none" xmlns="http://www.w3.org/2000/svg">
<path d="M213.417 332.327C215.264 332.327 217.078 332.809 218.677 333.733L252.239 353.111C253.839 354.035 255.167 355.364 256.09 356.965C257.014 358.565 257.499 360.38 257.498 362.228V401.762C257.498 405.522 255.497 408.995 252.239 410.875L218.672 430.258C217.072 431.181 215.257 431.668 213.41 431.668C211.563 431.668 209.748 431.181 208.148 430.258L174.577 410.875C172.977 409.951 171.648 408.623 170.724 407.024C169.8 405.424 169.313 403.61 169.313 401.762V362.228C169.313 358.469 171.319 354.995 174.577 353.111L208.139 333.733C209.742 332.809 211.561 332.322 213.403 332.322H213.412L213.417 332.327ZM213.408 325.009C210.278 325.011 207.203 325.836 204.492 327.4L170.92 346.773C168.211 348.343 165.962 350.596 164.397 353.307C162.831 356.018 162.005 359.093 162 362.223V401.758C162.005 404.888 162.831 407.963 164.397 410.674C165.962 413.385 168.211 415.638 170.92 417.208L204.483 436.586C210.005 439.773 216.806 439.773 222.323 436.586L255.891 417.208C258.599 415.638 260.849 413.385 262.414 410.674C263.98 407.963 264.806 404.888 264.811 401.758V362.223C264.806 359.093 263.98 356.018 262.414 353.307C260.849 350.596 258.599 348.343 255.891 346.773L222.328 327.391C219.614 325.825 216.536 325 213.403 325L213.408 325.009Z" fill="#8B63FF" fill-opacity="0.43"/>
<path d="M209.297 388.202C208.911 388.202 208.532 388.101 208.198 387.908C207.864 387.716 207.587 387.439 207.394 387.105L203.358 380.106C203.165 379.773 203.064 379.394 203.064 379.009C203.064 378.624 203.165 378.246 203.358 377.912L207.394 370.914C207.587 370.58 207.864 370.303 208.198 370.11C208.532 369.918 208.911 369.817 209.297 369.817H217.538C217.922 369.818 218.3 369.92 218.633 370.113C218.966 370.305 219.243 370.581 219.436 370.914L223.477 377.912C223.669 378.246 223.77 378.624 223.77 379.009C223.77 379.394 223.669 379.773 223.477 380.106L219.436 387.105C219.244 387.438 218.967 387.715 218.634 387.907C218.3 388.1 217.922 388.201 217.538 388.202H209.297V388.202ZM198.286 377.181C198.671 377.181 199.05 377.079 199.384 376.887C199.718 376.694 199.996 376.418 200.189 376.084L204.225 369.086C204.418 368.752 204.519 368.374 204.519 367.989C204.519 367.604 204.418 367.226 204.225 366.892L199.191 358.169L189.361 363.531C189.009 363.724 188.716 364.01 188.515 364.358C188.314 364.706 188.213 365.103 188.222 365.505C188.302 369.433 188.761 373.342 189.586 377.181H198.286V377.181ZM228.544 377.181C228.159 377.181 227.781 377.079 227.448 376.887C227.114 376.694 226.838 376.418 226.645 376.084L222.605 369.086C222.412 368.752 222.311 368.374 222.311 367.989C222.311 367.604 222.412 367.226 222.605 366.892L227.639 358.169L237.464 363.531C237.817 363.723 238.11 364.008 238.311 364.356C238.513 364.703 238.616 365.099 238.608 365.5C238.528 369.428 238.073 373.34 237.248 377.181H228.544V377.181ZM214.467 350.973C214.145 350.798 213.784 350.706 213.417 350.706C213.05 350.706 212.689 350.798 212.367 350.973L202.402 356.411L207.398 365.064C207.591 365.397 207.868 365.674 208.201 365.867C208.534 366.059 208.912 366.161 209.297 366.161H217.538C217.922 366.161 218.301 366.06 218.634 365.867C218.967 365.675 219.244 365.398 219.436 365.064L224.433 356.416L214.467 350.978V350.973ZM190.495 380.837C192.375 387.526 195.379 393.845 199.378 399.527L204.23 391.127C204.422 390.793 204.524 390.415 204.524 390.03C204.524 389.645 204.422 389.266 204.23 388.933L200.189 381.934C199.997 381.601 199.72 381.324 199.387 381.132C199.053 380.939 198.675 380.838 198.291 380.837H190.495ZM236.33 380.837C234.451 387.525 231.449 393.845 227.452 399.527L222.6 391.127C222.407 390.793 222.306 390.415 222.306 390.03C222.306 389.645 222.407 389.266 222.6 388.933L226.645 381.934C226.838 381.601 227.114 381.324 227.448 381.132C227.781 380.939 228.159 380.838 228.544 380.837H236.334H236.33ZM209.297 391.858C208.911 391.857 208.532 391.958 208.198 392.151C207.864 392.343 207.587 392.621 207.394 392.955L201.769 402.705C204.798 406.469 208.258 409.865 212.077 412.825C212.462 413.121 212.934 413.282 213.42 413.282C213.905 413.282 214.377 413.121 214.762 412.825C218.58 409.864 222.038 406.465 225.066 402.7L219.441 392.955C219.248 392.621 218.971 392.345 218.638 392.152C218.305 391.96 217.927 391.858 217.542 391.858H209.292H209.297Z" fill="#8B63FF" fill-opacity="0.43"/>
<path d="M53.4172 266.327C55.2641 266.327 57.0781 266.809 58.6766 267.733L92.2391 287.111C93.8389 288.035 95.1673 289.364 96.0905 290.965C97.0137 292.565 97.4993 294.38 97.4984 296.228V335.762C97.4984 339.522 95.4969 342.995 92.2391 344.875L58.6719 364.258C57.0721 365.181 55.2574 365.668 53.4102 365.668C51.5629 365.668 49.7482 365.181 48.1484 364.258L14.5766 344.875C12.9768 343.951 11.6483 342.623 10.7243 341.024C9.80029 339.424 9.3134 337.61 9.3125 335.762V296.228C9.3125 292.469 11.3187 288.995 14.5766 287.111L48.1391 267.733C49.7422 266.809 51.5609 266.322 53.4031 266.322H53.4125L53.4172 266.327ZM53.4078 259.009C50.2778 259.011 47.2032 259.836 44.4922 261.4L10.9203 280.773C8.21145 282.343 5.96192 284.596 4.39656 287.307C2.83119 290.018 2.00481 293.093 2 296.223V335.758C2.00481 338.888 2.83119 341.963 4.39656 344.674C5.96192 347.385 8.21145 349.638 10.9203 351.208L44.4828 370.586C50.0047 373.773 56.8063 373.773 62.3234 370.586L95.8906 351.208C98.5995 349.638 100.849 347.385 102.414 344.674C103.98 341.963 104.806 338.888 104.811 335.758V296.223C104.806 293.093 103.98 290.018 102.414 287.307C100.849 284.596 98.5995 282.343 95.8906 280.773L62.3281 261.391C59.6143 259.825 56.5363 259 53.4031 259L53.4078 259.009Z" fill="#8B63FF" fill-opacity="0.43"/>
<path d="M49.2969 322.202C48.9112 322.202 48.5323 322.101 48.1981 321.908C47.864 321.716 47.5866 321.439 47.3937 321.105L43.3578 314.106C43.1653 313.773 43.0639 313.394 43.0639 313.009C43.0639 312.624 43.1653 312.246 43.3578 311.912L47.3937 304.914C47.5866 304.58 47.864 304.303 48.1981 304.11C48.5323 303.918 48.9112 303.817 49.2969 303.817H57.5375C57.9222 303.818 58.2998 303.92 58.6329 304.113C58.9659 304.305 59.2428 304.581 59.4359 304.914L63.4766 311.912C63.6691 312.246 63.7705 312.624 63.7705 313.009C63.7705 313.394 63.6691 313.773 63.4766 314.106L59.4359 321.105C59.2435 321.438 58.9668 321.715 58.6336 321.907C58.3004 322.1 57.9223 322.201 57.5375 322.202H49.2969V322.202ZM38.2859 311.181C38.6714 311.181 39.05 311.079 39.384 310.887C39.7179 310.694 39.9955 310.418 40.1891 310.084L44.225 303.086C44.4175 302.752 44.5189 302.374 44.5189 301.989C44.5189 301.604 44.4175 301.226 44.225 300.892L39.1906 292.169L29.3609 297.531C29.0086 297.724 28.716 298.01 28.5151 298.358C28.3142 298.706 28.2128 299.103 28.2219 299.505C28.3016 303.433 28.7609 307.342 29.5859 311.181H38.2859V311.181ZM68.5437 311.181C68.1589 311.181 67.7809 311.079 67.4477 310.887C67.1144 310.694 66.8377 310.418 66.6453 310.084L62.6047 303.086C62.4121 302.752 62.3108 302.374 62.3108 301.989C62.3108 301.604 62.4121 301.226 62.6047 300.892L67.6391 292.169L77.4641 297.531C77.8166 297.723 78.1097 298.008 78.3114 298.356C78.513 298.703 78.6156 299.099 78.6078 299.5C78.5278 303.428 78.0726 307.34 77.2484 311.181H68.5437V311.181ZM54.4672 284.973C54.1451 284.798 53.7841 284.706 53.4172 284.706C53.0503 284.706 52.6893 284.798 52.3672 284.973L42.4016 290.411L47.3984 299.064C47.5909 299.397 47.8676 299.674 48.2008 299.867C48.534 300.059 48.912 300.161 49.2969 300.161H57.5375C57.9224 300.161 58.3006 300.06 58.6339 299.867C58.9672 299.675 59.2439 299.398 59.4359 299.064L64.4328 290.416L54.4672 284.978V284.973ZM30.4953 314.837C32.3753 321.526 35.3791 327.845 39.3781 333.527L44.2297 325.127C44.4222 324.793 44.5236 324.415 44.5236 324.03C44.5236 323.645 44.4222 323.266 44.2297 322.933L40.1891 315.934C39.9966 315.601 39.7199 315.324 39.3867 315.132C39.0535 314.939 38.6755 314.838 38.2906 314.837H30.4953ZM76.3297 314.837C74.4511 321.525 71.4489 327.845 67.4516 333.527L62.6 325.127C62.4075 324.793 62.3061 324.415 62.3061 324.03C62.3061 323.645 62.4075 323.266 62.6 322.933L66.6453 315.934C66.8377 315.601 67.1144 315.324 67.4477 315.132C67.7809 314.939 68.1589 314.838 68.5437 314.837H76.3344H76.3297ZM49.2969 325.858C48.9112 325.857 48.5323 325.958 48.1981 326.151C47.864 326.343 47.5866 326.621 47.3937 326.955L41.7687 336.705C44.7981 340.469 48.2576 343.865 52.0766 346.825C52.4616 347.121 52.9338 347.282 53.4195 347.282C53.9053 347.282 54.3774 347.121 54.7625 346.825C58.5801 343.864 62.038 340.465 65.0656 336.7L59.4406 326.955C59.2482 326.621 58.9715 326.345 58.6383 326.152C58.305 325.96 57.927 325.858 57.5422 325.858H49.2922H49.2969Z" fill="#8B63FF" fill-opacity="0.43"/>
<path d="M53.4172 95.3266C55.2641 95.3266 57.0781 95.8094 58.6766 96.7328L92.2391 116.111C93.8389 117.035 95.1673 118.364 96.0905 119.965C97.0137 121.565 97.4993 123.38 97.4984 125.228V164.762C97.4984 168.522 95.4969 171.995 92.2391 173.875L58.6719 193.258C57.0721 194.181 55.2574 194.668 53.4102 194.668C51.5629 194.668 49.7482 194.181 48.1484 193.258L14.5766 173.875C12.9768 172.951 11.6483 171.623 10.7243 170.024C9.80029 168.424 9.3134 166.61 9.3125 164.762V125.228C9.3125 121.469 11.3187 117.995 14.5766 116.111L48.1391 96.7328C49.7422 95.8094 51.5609 95.3219 53.4031 95.3219H53.4125L53.4172 95.3266ZM53.4078 88.0094C50.2778 88.0112 47.2032 88.8356 44.4922 90.4L10.9203 109.773C8.21145 111.343 5.96192 113.596 4.39656 116.307C2.83119 119.018 2.00481 122.093 2 125.223V164.758C2.00481 167.888 2.83119 170.963 4.39656 173.674C5.96192 176.385 8.21145 178.638 10.9203 180.208L44.4828 199.586C50.0047 202.773 56.8063 202.773 62.3234 199.586L95.8906 180.208C98.5995 178.638 100.849 176.385 102.414 173.674C103.98 170.963 104.806 167.888 104.811 164.758V125.223C104.806 122.093 103.98 119.018 102.414 116.307C100.849 113.596 98.5995 111.343 95.8906 109.773L62.3281 90.3906C59.6143 88.8247 56.5363 88.0002 53.4031 88L53.4078 88.0094Z" fill="#8B63FF" fill-opacity="0.43"/>
<path d="M49.2969 151.202C48.9112 151.202 48.5323 151.101 48.1981 150.908C47.864 150.716 47.5866 150.439 47.3937 150.105L43.3578 143.106C43.1653 142.773 43.0639 142.394 43.0639 142.009C43.0639 141.624 43.1653 141.246 43.3578 140.912L47.3937 133.914C47.5866 133.58 47.864 133.303 48.1981 133.11C48.5323 132.918 48.9112 132.817 49.2969 132.817H57.5375C57.9222 132.818 58.2998 132.92 58.6329 133.113C58.9659 133.305 59.2428 133.581 59.4359 133.914L63.4766 140.912C63.6691 141.246 63.7705 141.624 63.7705 142.009C63.7705 142.394 63.6691 142.773 63.4766 143.106L59.4359 150.105C59.2435 150.438 58.9668 150.715 58.6336 150.907C58.3004 151.1 57.9223 151.201 57.5375 151.202H49.2969V151.202ZM38.2859 140.181C38.6714 140.181 39.05 140.079 39.384 139.887C39.7179 139.694 39.9955 139.418 40.1891 139.084L44.225 132.086C44.4175 131.752 44.5189 131.374 44.5189 130.989C44.5189 130.604 44.4175 130.226 44.225 129.892L39.1906 121.169L29.3609 126.531C29.0086 126.724 28.716 127.01 28.5151 127.358C28.3142 127.706 28.2128 128.103 28.2219 128.505C28.3016 132.433 28.7609 136.342 29.5859 140.181H38.2859V140.181ZM68.5437 140.181C68.1589 140.181 67.7809 140.079 67.4477 139.887C67.1144 139.694 66.8377 139.418 66.6453 139.084L62.6047 132.086C62.4121 131.752 62.3108 131.374 62.3108 130.989C62.3108 130.604 62.4121 130.226 62.6047 129.892L67.6391 121.169L77.4641 126.531C77.8166 126.723 78.1097 127.008 78.3114 127.356C78.513 127.703 78.6156 128.099 78.6078 128.5C78.5278 132.428 78.0726 136.34 77.2484 140.181H68.5437V140.181ZM54.4672 113.973C54.1451 113.798 53.7841 113.706 53.4172 113.706C53.0503 113.706 52.6893 113.798 52.3672 113.973L42.4016 119.411L47.3984 128.064C47.5909 128.397 47.8676 128.674 48.2008 128.867C48.534 129.059 48.912 129.161 49.2969 129.161H57.5375C57.9224 129.161 58.3006 129.06 58.6339 128.867C58.9672 128.675 59.2439 128.398 59.4359 128.064L64.4328 119.416L54.4672 113.978V113.973ZM30.4953 143.837C32.3753 150.526 35.3791 156.845 39.3781 162.527L44.2297 154.127C44.4222 153.793 44.5236 153.415 44.5236 153.03C44.5236 152.645 44.4222 152.266 44.2297 151.933L40.1891 144.934C39.9966 144.601 39.7199 144.324 39.3867 144.132C39.0535 143.939 38.6755 143.838 38.2906 143.837H30.4953ZM76.3297 143.837C74.4511 150.525 71.4489 156.845 67.4516 162.527L62.6 154.127C62.4075 153.793 62.3061 153.415 62.3061 153.03C62.3061 152.645 62.4075 152.266 62.6 151.933L66.6453 144.934C66.8377 144.601 67.1144 144.324 67.4477 144.132C67.7809 143.939 68.1589 143.838 68.5437 143.837H76.3344H76.3297ZM49.2969 154.858C48.9112 154.857 48.5323 154.958 48.1981 155.151C47.864 155.343 47.5866 155.621 47.3937 155.955L41.7687 165.705C44.7981 169.469 48.2576 172.865 52.0766 175.825C52.4616 176.121 52.9338 176.282 53.4195 176.282C53.9053 176.282 54.3774 176.121 54.7625 175.825C58.5801 172.864 62.038 169.465 65.0656 165.7L59.4406 155.955C59.2482 155.621 58.9715 155.345 58.6383 155.152C58.305 154.96 57.927 154.858 57.5422 154.858H49.2922H49.2969Z" fill="#8B63FF" fill-opacity="0.43"/>
<path d="M213.417 7.32656C215.264 7.32656 217.078 7.80937 218.677 8.73281L252.239 28.1109C253.839 29.0352 255.167 30.3643 256.09 31.9648C257.014 33.5652 257.499 35.3805 257.498 37.2281V76.7625C257.498 80.5219 255.497 83.9953 252.239 85.875L218.672 105.258C217.072 106.181 215.257 106.668 213.41 106.668C211.563 106.668 209.748 106.181 208.148 105.258L174.577 85.875C172.977 84.9514 171.648 83.6231 170.724 82.0236C169.8 80.4241 169.313 78.6097 169.313 76.7625V37.2281C169.313 33.4687 171.319 29.9953 174.577 28.1109L208.139 8.73281C209.742 7.80937 211.561 7.32187 213.403 7.32187H213.412L213.417 7.32656ZM213.408 0.00937432C210.278 0.011209 207.203 0.835619 204.492 2.4L170.92 21.7734C168.211 23.3429 165.962 25.5958 164.397 28.307C162.831 31.0182 162.005 34.0928 162 37.2234V76.7578C162.005 79.8885 162.831 82.963 164.397 85.6743C165.962 88.3855 168.211 90.6384 170.92 92.2078L204.483 111.586C210.005 114.773 216.806 114.773 222.323 111.586L255.891 92.2078C258.599 90.6384 260.849 88.3855 262.414 85.6743C263.98 82.963 264.806 79.8885 264.811 76.7578V37.2234C264.806 34.0928 263.98 31.0182 262.414 28.307C260.849 25.5958 258.599 23.3429 255.891 21.7734L222.328 2.39062C219.614 0.824657 216.536 0.000190904 213.403 0L213.408 0.00937432Z" fill="#8B63FF" fill-opacity="0.43"/>
<path d="M209.297 63.2015C208.911 63.2021 208.532 63.101 208.198 62.9085C207.864 62.7159 207.587 62.4386 207.394 62.1047L203.358 55.1062C203.165 54.7727 203.064 54.3944 203.064 54.0094C203.064 53.6243 203.165 53.246 203.358 52.9125L207.394 45.914C207.587 45.5801 207.864 45.3028 208.198 45.1103C208.532 44.9177 208.911 44.8166 209.297 44.8172H217.538C217.922 44.8184 218.3 44.9202 218.633 45.1127C218.966 45.3051 219.243 45.5814 219.436 45.914L223.477 52.9125C223.669 53.246 223.77 53.6243 223.77 54.0094C223.77 54.3944 223.669 54.7727 223.477 55.1062L219.436 62.1047C219.244 62.4379 218.967 62.7148 218.634 62.9073C218.3 63.0998 217.922 63.2013 217.538 63.2015H209.297V63.2015ZM198.286 52.1812C198.671 52.1809 199.05 52.0794 199.384 51.8869C199.718 51.6944 199.996 51.4177 200.189 51.0844L204.225 44.0859C204.418 43.7524 204.519 43.3741 204.519 42.989C204.519 42.604 204.418 42.2257 204.225 41.8922L199.191 33.1687L189.361 38.5312C189.009 38.7243 188.716 39.0105 188.515 39.3585C188.314 39.7065 188.213 40.103 188.222 40.5047C188.302 44.4328 188.761 48.3422 189.586 52.1812H198.286V52.1812ZM228.544 52.1812C228.159 52.181 227.781 52.0795 227.448 51.887C227.114 51.6944 226.838 51.4176 226.645 51.0844L222.605 44.0859C222.412 43.7524 222.311 43.3741 222.311 42.989C222.311 42.604 222.412 42.2257 222.605 41.8922L227.639 33.1687L237.464 38.5312C237.817 38.7233 238.11 39.0085 238.311 39.3556C238.513 39.7027 238.616 40.0986 238.608 40.5C238.528 44.4281 238.073 48.3397 237.248 52.1812H228.544V52.1812ZM214.467 25.9734C214.145 25.7978 213.784 25.7058 213.417 25.7058C213.05 25.7058 212.689 25.7978 212.367 25.9734L202.402 31.4109L207.398 40.064C207.591 40.3973 207.868 40.6741 208.201 40.8667C208.534 41.0592 208.912 41.1607 209.297 41.1609H217.538C217.922 41.1611 218.301 41.0599 218.634 40.8673C218.967 40.6747 219.244 40.3976 219.436 40.064L224.433 31.4156L214.467 25.9781V25.9734ZM190.495 55.8375C192.375 62.5257 195.379 68.8455 199.378 74.5265L204.23 66.1265C204.422 65.793 204.524 65.4147 204.524 65.0297C204.524 64.6446 204.422 64.2663 204.23 63.9328L200.189 56.9344C199.997 56.6011 199.72 56.3243 199.387 56.1317C199.053 55.9392 198.675 55.8377 198.291 55.8375H190.495ZM236.33 55.8375C234.451 62.5254 231.449 68.8451 227.452 74.5265L222.6 66.1265C222.407 65.793 222.306 65.4147 222.306 65.0297C222.306 64.6446 222.407 64.2663 222.6 63.9328L226.645 56.9344C226.838 56.6011 227.114 56.3243 227.448 56.1317C227.781 55.9392 228.159 55.8377 228.544 55.8375H236.334H236.33ZM209.297 66.8578C208.911 66.8572 208.532 66.9583 208.198 67.1509C207.864 67.3434 207.587 67.6207 207.394 67.9547L201.769 77.7047C204.798 81.4687 208.258 84.8652 212.077 87.825C212.462 88.1211 212.934 88.2816 213.42 88.2816C213.905 88.2816 214.377 88.1211 214.762 87.825C218.58 84.8635 222.038 81.4654 225.066 77.7L219.441 67.9547C219.248 67.6214 218.971 67.3446 218.638 67.1521C218.305 66.9595 217.927 66.858 217.542 66.8578H209.292H209.297Z" fill="#8B63FF" fill-opacity="0.43"/>
<path d="M371.417 95.3266C373.264 95.3266 375.078 95.8094 376.677 96.7328L410.239 116.111C411.839 117.035 413.167 118.364 414.09 119.965C415.014 121.565 415.499 123.38 415.498 125.228V164.762C415.498 168.522 413.497 171.995 410.239 173.875L376.672 193.258C375.072 194.181 373.257 194.668 371.41 194.668C369.563 194.668 367.748 194.181 366.148 193.258L332.577 173.875C330.977 172.951 329.648 171.623 328.724 170.024C327.8 168.424 327.313 166.61 327.313 164.762V125.228C327.313 121.469 329.319 117.995 332.577 116.111L366.139 96.7328C367.742 95.8094 369.561 95.3219 371.403 95.3219H371.412L371.417 95.3266ZM371.408 88.0094C368.278 88.0112 365.203 88.8356 362.492 90.4L328.92 109.773C326.211 111.343 323.962 113.596 322.397 116.307C320.831 119.018 320.005 122.093 320 125.223V164.758C320.005 167.888 320.831 170.963 322.397 173.674C323.962 176.385 326.211 178.638 328.92 180.208L362.483 199.586C368.005 202.773 374.806 202.773 380.323 199.586L413.891 180.208C416.599 178.638 418.849 176.385 420.414 173.674C421.98 170.963 422.806 167.888 422.811 164.758V125.223C422.806 122.093 421.98 119.018 420.414 116.307C418.849 113.596 416.599 111.343 413.891 109.773L380.328 90.3906C377.614 88.8247 374.536 88.0002 371.403 88L371.408 88.0094Z" fill="#8B63FF" fill-opacity="0.43"/>
<path d="M367.297 151.202C366.911 151.202 366.532 151.101 366.198 150.908C365.864 150.716 365.587 150.439 365.394 150.105L361.358 143.106C361.165 142.773 361.064 142.394 361.064 142.009C361.064 141.624 361.165 141.246 361.358 140.912L365.394 133.914C365.587 133.58 365.864 133.303 366.198 133.11C366.532 132.918 366.911 132.817 367.297 132.817H375.538C375.922 132.818 376.3 132.92 376.633 133.113C376.966 133.305 377.243 133.581 377.436 133.914L381.477 140.912C381.669 141.246 381.77 141.624 381.77 142.009C381.77 142.394 381.669 142.773 381.477 143.106L377.436 150.105C377.244 150.438 376.967 150.715 376.634 150.907C376.3 151.1 375.922 151.201 375.538 151.202H367.297V151.202ZM356.286 140.181C356.671 140.181 357.05 140.079 357.384 139.887C357.718 139.694 357.996 139.418 358.189 139.084L362.225 132.086C362.418 131.752 362.519 131.374 362.519 130.989C362.519 130.604 362.418 130.226 362.225 129.892L357.191 121.169L347.361 126.531C347.009 126.724 346.716 127.01 346.515 127.358C346.314 127.706 346.213 128.103 346.222 128.505C346.302 132.433 346.761 136.342 347.586 140.181H356.286V140.181ZM386.544 140.181C386.159 140.181 385.781 140.079 385.448 139.887C385.114 139.694 384.838 139.418 384.645 139.084L380.605 132.086C380.412 131.752 380.311 131.374 380.311 130.989C380.311 130.604 380.412 130.226 380.605 129.892L385.639 121.169L395.464 126.531C395.817 126.723 396.11 127.008 396.311 127.356C396.513 127.703 396.616 128.099 396.608 128.5C396.528 132.428 396.073 136.34 395.248 140.181H386.544V140.181ZM372.467 113.973C372.145 113.798 371.784 113.706 371.417 113.706C371.05 113.706 370.689 113.798 370.367 113.973L360.402 119.411L365.398 128.064C365.591 128.397 365.868 128.674 366.201 128.867C366.534 129.059 366.912 129.161 367.297 129.161H375.538C375.922 129.161 376.301 129.06 376.634 128.867C376.967 128.675 377.244 128.398 377.436 128.064L382.433 119.416L372.467 113.978V113.973ZM348.495 143.837C350.375 150.526 353.379 156.845 357.378 162.527L362.23 154.127C362.422 153.793 362.524 153.415 362.524 153.03C362.524 152.645 362.422 152.266 362.23 151.933L358.189 144.934C357.997 144.601 357.72 144.324 357.387 144.132C357.053 143.939 356.675 143.838 356.291 143.837H348.495ZM394.33 143.837C392.451 150.525 389.449 156.845 385.452 162.527L380.6 154.127C380.407 153.793 380.306 153.415 380.306 153.03C380.306 152.645 380.407 152.266 380.6 151.933L384.645 144.934C384.838 144.601 385.114 144.324 385.448 144.132C385.781 143.939 386.159 143.838 386.544 143.837H394.334H394.33ZM367.297 154.858C366.911 154.857 366.532 154.958 366.198 155.151C365.864 155.343 365.587 155.621 365.394 155.955L359.769 165.705C362.798 169.469 366.258 172.865 370.077 175.825C370.462 176.121 370.934 176.282 371.42 176.282C371.905 176.282 372.377 176.121 372.762 175.825C376.58 172.864 380.038 169.465 383.066 165.7L377.441 155.955C377.248 155.621 376.971 155.345 376.638 155.152C376.305 154.96 375.927 154.858 375.542 154.858H367.292H367.297Z" fill="#8B63FF" fill-opacity="0.43"/>
<path d="M371.417 265.327C373.264 265.327 375.078 265.809 376.677 266.733L410.239 286.111C411.839 287.035 413.167 288.364 414.09 289.965C415.014 291.565 415.499 293.38 415.498 295.228V334.762C415.498 338.522 413.497 341.995 410.239 343.875L376.672 363.258C375.072 364.181 373.257 364.668 371.41 364.668C369.563 364.668 367.748 364.181 366.148 363.258L332.577 343.875C330.977 342.951 329.648 341.623 328.724 340.024C327.8 338.424 327.313 336.61 327.313 334.762V295.228C327.313 291.469 329.319 287.995 332.577 286.111L366.139 266.733C367.742 265.809 369.561 265.322 371.403 265.322H371.412L371.417 265.327ZM371.408 258.009C368.278 258.011 365.203 258.836 362.492 260.4L328.92 279.773C326.211 281.343 323.962 283.596 322.397 286.307C320.831 289.018 320.005 292.093 320 295.223V334.758C320.005 337.888 320.831 340.963 322.397 343.674C323.962 346.385 326.211 348.638 328.92 350.208L362.483 369.586C368.005 372.773 374.806 372.773 380.323 369.586L413.891 350.208C416.599 348.638 418.849 346.385 420.414 343.674C421.98 340.963 422.806 337.888 422.811 334.758V295.223C422.806 292.093 421.98 289.018 420.414 286.307C418.849 283.596 416.599 281.343 413.891 279.773L380.328 260.391C377.614 258.825 374.536 258 371.403 258L371.408 258.009Z" fill="#8B63FF" fill-opacity="0.43"/>
<path d="M367.297 321.202C366.911 321.202 366.532 321.101 366.198 320.908C365.864 320.716 365.587 320.439 365.394 320.105L361.358 313.106C361.165 312.773 361.064 312.394 361.064 312.009C361.064 311.624 361.165 311.246 361.358 310.912L365.394 303.914C365.587 303.58 365.864 303.303 366.198 303.11C366.532 302.918 366.911 302.817 367.297 302.817H375.538C375.922 302.818 376.3 302.92 376.633 303.113C376.966 303.305 377.243 303.581 377.436 303.914L381.477 310.912C381.669 311.246 381.77 311.624 381.77 312.009C381.77 312.394 381.669 312.773 381.477 313.106L377.436 320.105C377.244 320.438 376.967 320.715 376.634 320.907C376.3 321.1 375.922 321.201 375.538 321.202H367.297V321.202ZM356.286 310.181C356.671 310.181 357.05 310.079 357.384 309.887C357.718 309.694 357.996 309.418 358.189 309.084L362.225 302.086C362.418 301.752 362.519 301.374 362.519 300.989C362.519 300.604 362.418 300.226 362.225 299.892L357.191 291.169L347.361 296.531C347.009 296.724 346.716 297.01 346.515 297.358C346.314 297.706 346.213 298.103 346.222 298.505C346.302 302.433 346.761 306.342 347.586 310.181H356.286V310.181ZM386.544 310.181C386.159 310.181 385.781 310.079 385.448 309.887C385.114 309.694 384.838 309.418 384.645 309.084L380.605 302.086C380.412 301.752 380.311 301.374 380.311 300.989C380.311 300.604 380.412 300.226 380.605 299.892L385.639 291.169L395.464 296.531C395.817 296.723 396.11 297.008 396.311 297.356C396.513 297.703 396.616 298.099 396.608 298.5C396.528 302.428 396.073 306.34 395.248 310.181H386.544V310.181ZM372.467 283.973C372.145 283.798 371.784 283.706 371.417 283.706C371.05 283.706 370.689 283.798 370.367 283.973L360.402 289.411L365.398 298.064C365.591 298.397 365.868 298.674 366.201 298.867C366.534 299.059 366.912 299.161 367.297 299.161H375.538C375.922 299.161 376.301 299.06 376.634 298.867C376.967 298.675 377.244 298.398 377.436 298.064L382.433 289.416L372.467 283.978V283.973ZM348.495 313.837C350.375 320.526 353.379 326.845 357.378 332.527L362.23 324.127C362.422 323.793 362.524 323.415 362.524 323.03C362.524 322.645 362.422 322.266 362.23 321.933L358.189 314.934C357.997 314.601 357.72 314.324 357.387 314.132C357.053 313.939 356.675 313.838 356.291 313.837H348.495ZM394.33 313.837C392.451 320.525 389.449 326.845 385.452 332.527L380.6 324.127C380.407 323.793 380.306 323.415 380.306 323.03C380.306 322.645 380.407 322.266 380.6 321.933L384.645 314.934C384.838 314.601 385.114 314.324 385.448 314.132C385.781 313.939 386.159 313.838 386.544 313.837H394.334H394.33ZM367.297 324.858C366.911 324.857 366.532 324.958 366.198 325.151C365.864 325.343 365.587 325.621 365.394 325.955L359.769 335.705C362.798 339.469 366.258 342.865 370.077 345.825C370.462 346.121 370.934 346.282 371.42 346.282C371.905 346.282 372.377 346.121 372.762 345.825C376.58 342.864 380.038 339.465 383.066 335.7L377.441 325.955C377.248 325.621 376.971 325.345 376.638 325.152C376.305 324.96 375.927 324.858 375.542 324.858H367.292H367.297Z" fill="#8B63FF" fill-opacity="0.43"/>
<path d="M213 429C330.637 429 426 334.084 426 217C426 99.9156 330.637 5 213 5C95.3633 5 0 99.9156 0 217C0 334.084 95.3633 429 213 429Z" fill="url(#paint0_radial_230_4)"/>
<path opacity="0.1" d="M1.57956 116.387L55.5865 144.676V192.506L1.57956 163.961L1.57956 116.387Z" fill="#8B63FF"/>
<path opacity="0.2" d="M109.404 116.416L55.3987 144.674V192.454L109.404 163.94V116.416Z" fill="#8B63FF"/>
<path opacity="0.3" d="M0 116.544L54.0069 88L108.014 116.544V116.758L54.0069 145.302L0 116.758L0 116.544Z" fill="#8B63FF"/>
<path opacity="0.1" d="M160 353.387L214.007 381.676V429.506L160 400.961V353.387Z" fill="#8B63FF"/>
<path opacity="0.2" d="M267.825 353.416L213.819 381.674V429.454L267.825 400.94V353.416Z" fill="#8B63FF"/>
<path opacity="0.3" d="M160 353.544L214.007 325L268.014 353.544V353.758L214.007 382.302L160 353.758V353.544Z" fill="#8B63FF"/>
<path opacity="0.1" d="M0 287.387L54.0069 315.676V363.506L0 334.961L0 287.387Z" fill="#8B63FF"/>
<path opacity="0.2" d="M107.825 287.416L53.8191 315.674V363.454L107.825 334.94V287.416Z" fill="#8B63FF"/>
<path opacity="0.3" d="M0 287.544L54.0069 259L108.014 287.544V287.758L54.0069 316.302L0 287.758L0 287.544Z" fill="#8B63FF"/>
<path opacity="0.1" d="M320 120.388L374.007 148.676V196.506L320 167.961V120.388Z" fill="#8B63FF"/>
<path opacity="0.2" d="M427.825 120.416L373.819 148.675V196.455L427.825 167.94V120.416Z" fill="#8B63FF"/>
<path opacity="0.3" d="M320 120.544L374.007 92L428.014 120.544V120.758L374.007 149.302L320 120.758V120.544Z" fill="#8B63FF"/>
<path opacity="0.1" d="M320 287.388L374.007 315.676V363.506L320 334.961V287.388Z" fill="#8B63FF"/>
<path opacity="0.2" d="M427.825 287.416L373.819 315.675V363.454L427.825 334.94V287.416Z" fill="#8B63FF"/>
<path opacity="0.3" d="M320 287.544L374.007 259L428.014 287.544V287.758L374.007 316.302L320 287.758V287.544Z" fill="#8B63FF"/>
<path opacity="0.1" d="M160 33.3876L214.007 61.6757V109.506L160 80.9614V33.3876Z" fill="#8B63FF"/>
<path opacity="0.2" d="M267.825 33.4163L213.819 61.6747V109.455L267.825 80.9402V33.4163Z" fill="#8B63FF"/>
<path opacity="0.3" d="M160 33.5443L214.007 5L268.014 33.5443V33.7578L214.007 62.3021L160 33.7578V33.5443Z" fill="#8B63FF"/>
<path d="M320 168L214 109" stroke="#8B63FF" stroke-opacity="0.57" stroke-width="2" stroke-linecap="round"/>
<path d="M320 168V287" stroke="#8B63FF" stroke-opacity="0.57" stroke-width="2" stroke-linecap="round"/>
<path d="M320 168L214 325" stroke="#8B63FF" stroke-opacity="0.57" stroke-width="2" stroke-linecap="round"/>
<path d="M320 168L108 288" stroke="#8B63FF" stroke-opacity="0.57" stroke-width="2" stroke-linecap="round"/>
<path d="M320 168L109 164" stroke="#8B63FF" stroke-opacity="0.57" stroke-width="2" stroke-linecap="round"/>
<path d="M108 287L109 164" stroke="#8B63FF" stroke-opacity="0.57" stroke-width="2" stroke-linecap="round"/>
<path d="M214 325L109 164" stroke="#8B63FF" stroke-opacity="0.57" stroke-width="2" stroke-linecap="round"/>
<path d="M320 288L109 164" stroke="#8B63FF" stroke-opacity="0.57" stroke-width="2" stroke-linecap="round"/>
<path d="M109 164L214 109" stroke="#8B63FF" stroke-opacity="0.57" stroke-width="2" stroke-linecap="round"/>
<path d="M214 325L214 109" stroke="#8B63FF" stroke-opacity="0.57" stroke-width="2" stroke-linecap="round"/>
<path d="M108 288L214 109" stroke="#8B63FF" stroke-opacity="0.57" stroke-width="2" stroke-linecap="round"/>
<path d="M108 288L214 325" stroke="#8B63FF" stroke-opacity="0.57" stroke-width="2" stroke-linecap="round"/>
<path d="M108 288H320" stroke="#8B63FF" stroke-opacity="0.57" stroke-width="2" stroke-linecap="round"/>
<path d="M214 325L320 288" stroke="#8B63FF" stroke-opacity="0.57" stroke-width="2" stroke-linecap="round"/>
<path d="M320 288L214 109" stroke="#8B63FF" stroke-opacity="0.57" stroke-width="2" stroke-linecap="round"/>
<defs>
<radialGradient id="paint0_radial_230_4" cx="0" cy="0" r="1" gradientUnits="userSpaceOnUse" gradientTransform="translate(213 217) rotate(90) scale(212 213)">
<stop offset="0.0677083" stop-color="#8B63FF"/>
<stop offset="0.8125" stop-color="#8B63FF" stop-opacity="0"/>
<stop offset="1" stop-color="#B094FF" stop-opacity="0.1"/>
</radialGradient>
</defs>
</svg>
